<svg width="241" height="21" viewBox="0 0 241 21" fill="none" xmlns="http://www.w3.org/2000/svg">
<path d="M5.23047 20.8047C3.82422 20.8047 2.74023 20.541 1.97852 20.0137C1.2168 19.4928 0.835938 18.7604 0.835938 17.8164C0.835938 17.1458 1.04753 16.5729 1.4707 16.0977C1.90039 15.6224 2.49284 15.3066 3.24805 15.1504C2.9681 15.0202 2.72721 14.8249 2.52539 14.5645C2.33008 14.304 2.23242 14.0046 2.23242 13.666C2.23242 13.2754 2.33984 12.9336 2.55469 12.6406C2.77604 12.3411 3.11133 12.0547 3.56055 11.7812C3.00065 11.5534 2.54492 11.1693 2.19336 10.6289C1.84831 10.082 1.67578 9.44727 1.67578 8.72461C1.67578 7.95638 1.83529 7.30208 2.1543 6.76172C2.47331 6.21484 2.93555 5.79818 3.54102 5.51172C4.14648 5.22526 4.87891 5.08203 5.73828 5.08203C5.92708 5.08203 6.11589 5.0918 6.30469 5.11133C6.5 5.12435 6.68555 5.14714 6.86133 5.17969C7.03711 5.20573 7.1901 5.23828 7.32031 5.27734H10.9922V6.32227L9.01953 6.56641C9.21484 6.82031 9.3776 7.1263 9.50781 7.48438C9.63802 7.84245 9.70312 8.23958 9.70312 8.67578C9.70312 9.74349 9.3418 10.5931 8.61914 11.2246C7.89648 11.8496 6.90365 12.1621 5.64062 12.1621C5.34115 12.1621 5.03516 12.1361 4.72266 12.084C4.40365 12.2598 4.15951 12.4551 3.99023 12.6699C3.82747 12.8848 3.74609 13.1322 3.74609 13.4121C3.74609 13.6204 3.80794 13.7865 3.93164 13.9102C4.06185 14.0339 4.2474 14.125 4.48828 14.1836C4.72917 14.2357 5.01888 14.2617 5.35742 14.2617H7.24219C8.40755 14.2617 9.29948 14.5059 9.91797 14.9941C10.543 15.4824 10.8555 16.1953 10.8555 17.1328C10.8555 18.3177 10.3737 19.2259 9.41016 19.8574C8.44661 20.4889 7.05339 20.8047 5.23047 20.8047ZM5.2793 19.5352C6.16471 19.5352 6.89714 19.444 7.47656 19.2617C8.0625 19.0859 8.4987 18.8288 8.78516 18.4902C9.07812 18.1582 9.22461 17.7611 9.22461 17.2988C9.22461 16.8691 9.12695 16.5436 8.93164 16.3223C8.73633 16.1074 8.44987 15.9642 8.07227 15.8926C7.69466 15.8145 7.23242 15.7754 6.68555 15.7754H4.83008C4.34831 15.7754 3.92839 15.8503 3.57031 16C3.21224 16.1497 2.93555 16.3711 2.74023 16.6641C2.55143 16.957 2.45703 17.3216 2.45703 17.7578C2.45703 18.3372 2.70117 18.7767 3.18945 19.0762C3.67773 19.3822 4.37435 19.5352 5.2793 19.5352ZM5.69922 10.9805C6.47396 10.9805 7.05664 10.7852 7.44727 10.3945C7.83789 10.0039 8.0332 9.43424 8.0332 8.68555C8.0332 7.88477 7.83464 7.28581 7.4375 6.88867C7.04036 6.48503 6.45443 6.2832 5.67969 6.2832C4.9375 6.2832 4.36458 6.49154 3.96094 6.9082C3.5638 7.31836 3.36523 7.92057 3.36523 8.71484C3.36523 9.44401 3.56706 10.0039 3.9707 10.3945C4.37435 10.7852 4.95052 10.9805 5.69922 10.9805ZM21.9395 5.29688V16H20.6113L20.377 14.4961H20.2891C20.0677 14.8672 19.7812 15.1797 19.4297 15.4336C19.0781 15.6875 18.681 15.8763 18.2383 16C17.8021 16.1302 17.3366 16.1953 16.8418 16.1953C15.9954 16.1953 15.2858 16.0586 14.7129 15.7852C14.14 15.5117 13.707 15.0885 13.4141 14.5156C13.1276 13.9427 12.9844 13.207 12.9844 12.3086V5.29688H14.625V12.1914C14.625 13.0833 14.8268 13.7507 15.2305 14.1934C15.6341 14.6296 16.2493 14.8477 17.0762 14.8477C17.8704 14.8477 18.502 14.6979 18.9707 14.3984C19.446 14.099 19.7878 13.6595 19.9961 13.0801C20.2044 12.4941 20.3086 11.778 20.3086 10.9316V5.29688H21.9395ZM30.2305 5.10156C30.4453 5.10156 30.6699 5.11458 30.9043 5.14062C31.1387 5.16016 31.347 5.18945 31.5293 5.22852L31.3242 6.73242C31.1484 6.68685 30.9531 6.65104 30.7383 6.625C30.5234 6.59896 30.3216 6.58594 30.1328 6.58594C29.7031 6.58594 29.2962 6.67383 28.9121 6.84961C28.5345 7.01888 28.2025 7.26628 27.916 7.5918C27.6296 7.91081 27.4049 8.29818 27.2422 8.75391C27.0794 9.20312 26.998 9.70443 26.998 10.2578V16H25.3672V5.29688H26.7148L26.8906 7.26953H26.959C27.1803 6.8724 27.4473 6.51107 27.7598 6.18555C28.0723 5.85352 28.4336 5.58984 28.8438 5.39453C29.2604 5.19922 29.7227 5.10156 30.2305 5.10156ZM42.3887 5.29688V16H41.0605L40.8262 14.4961H40.7383C40.5169 14.8672 40.2305 15.1797 39.8789 15.4336C39.5273 15.6875 39.1302 15.8763 38.6875 16C38.2513 16.1302 37.7858 16.1953 37.291 16.1953C36.4447 16.1953 35.735 16.0586 35.1621 15.7852C34.5892 15.5117 34.1562 15.0885 33.8633 14.5156C33.5768 13.9427 33.4336 13.207 33.4336 12.3086V5.29688H35.0742V12.1914C35.0742 13.0833 35.276 13.7507 35.6797 14.1934C36.0833 14.6296 36.6986 14.8477 37.5254 14.8477C38.3197 14.8477 38.9512 14.6979 39.4199 14.3984C39.8952 14.099 40.237 13.6595 40.4453 13.0801C40.6536 12.4941 40.7578 11.778 40.7578 10.9316V5.29688H42.3887ZM50.6797 5.10156C50.8945 5.10156 51.1191 5.11458 51.3535 5.14062C51.5879 5.16016 51.7962 5.18945 51.9785 5.22852L51.7734 6.73242C51.5977 6.68685 51.4023 6.65104 51.1875 6.625C50.9727 6.59896 50.7708 6.58594 50.582 6.58594C50.1523 6.58594 49.7454 6.67383 49.3613 6.84961C48.9837 7.01888 48.6517 7.26628 48.3652 7.5918C48.0788 7.91081 47.8542 8.29818 47.6914 8.75391C47.5286 9.20312 47.4473 9.70443 47.4473 10.2578V16H45.8164V5.29688H47.1641L47.3398 7.26953H47.4082C47.6296 6.8724 47.8965 6.51107 48.209 6.18555C48.5215 5.85352 48.8828 5.58984 49.293 5.39453C49.7096 5.19922 50.1719 5.10156 50.6797 5.10156ZM58.1211 5.10156C59.0326 5.10156 59.8138 5.30339 60.4648 5.70703C61.1159 6.11068 61.6139 6.67708 61.959 7.40625C62.304 8.12891 62.4766 8.97526 62.4766 9.94531V10.9512H55.084C55.1035 12.2077 55.416 13.1647 56.0215 13.8223C56.627 14.4798 57.4798 14.8086 58.5801 14.8086C59.2572 14.8086 59.8561 14.7467 60.377 14.623C60.8978 14.4993 61.4382 14.3171 61.998 14.0762V15.502C61.4577 15.7428 60.9206 15.9186 60.3867 16.0293C59.8594 16.14 59.2344 16.1953 58.5117 16.1953C57.4831 16.1953 56.5846 15.987 55.8164 15.5703C55.0547 15.1471 54.4622 14.5286 54.0391 13.7148C53.6159 12.901 53.4043 11.9049 53.4043 10.7266C53.4043 9.57422 53.5964 8.57812 53.9805 7.73828C54.3711 6.89193 54.918 6.24089 55.6211 5.78516C56.3307 5.32943 57.1641 5.10156 58.1211 5.10156ZM58.1016 6.42969C57.2357 6.42969 56.5456 6.71289 56.0312 7.2793C55.5169 7.8457 55.2109 8.63672 55.1133 9.65234H60.7773C60.7708 9.01432 60.6699 8.45443 60.4746 7.97266C60.2858 7.48438 59.9961 7.10677 59.6055 6.83984C59.2148 6.56641 58.7135 6.42969 58.1016 6.42969ZM70.2598 5.10156C71.5944 5.10156 72.6589 5.56055 73.4531 6.47852C74.2474 7.39648 74.6445 8.77669 74.6445 10.6191C74.6445 11.8366 74.4622 12.8587 74.0977 13.6855C73.7331 14.5124 73.2188 15.1374 72.5547 15.5605C71.8971 15.9837 71.1191 16.1953 70.2207 16.1953C69.6543 16.1953 69.1562 16.1204 68.7266 15.9707C68.2969 15.821 67.929 15.6191 67.623 15.3652C67.3171 15.1113 67.0632 14.8346 66.8613 14.5352H66.7441C66.7637 14.7891 66.7865 15.0951 66.8125 15.4531C66.8451 15.8112 66.8613 16.1237 66.8613 16.3906V20.7852H65.2305V5.29688H66.5684L66.7832 6.87891H66.8613C67.0697 6.55339 67.3236 6.25716 67.623 5.99023C67.9225 5.7168 68.2871 5.50195 68.7168 5.3457C69.153 5.18294 69.6673 5.10156 70.2598 5.10156ZM69.9766 6.46875C69.2344 6.46875 68.6354 6.61198 68.1797 6.89844C67.7305 7.1849 67.4017 7.61458 67.1934 8.1875C66.985 8.75391 66.8743 9.4668 66.8613 10.3262V10.6387C66.8613 11.5436 66.959 12.3086 67.1543 12.9336C67.3561 13.5586 67.6849 14.0339 68.1406 14.3594C68.6029 14.6849 69.2214 14.8477 69.9961 14.8477C70.6602 14.8477 71.2135 14.6686 71.6562 14.3105C72.099 13.9525 72.4277 13.4544 72.6426 12.8164C72.8639 12.1719 72.9746 11.4329 72.9746 10.5996C72.9746 9.33659 72.7272 8.33398 72.2324 7.5918C71.7441 6.8431 70.9922 6.46875 69.9766 6.46875ZM81.4805 5.12109C82.7565 5.12109 83.7038 5.40755 84.3223 5.98047C84.9408 6.55339 85.25 7.4681 85.25 8.72461V16H84.0684L83.7559 14.418H83.6777C83.3783 14.8086 83.0658 15.1374 82.7402 15.4043C82.4147 15.6647 82.0371 15.8633 81.6074 16C81.1842 16.1302 80.6634 16.1953 80.0449 16.1953C79.3939 16.1953 78.8145 16.0814 78.3066 15.8535C77.8053 15.6257 77.4082 15.2806 77.1152 14.8184C76.8288 14.3561 76.6855 13.7702 76.6855 13.0605C76.6855 11.9928 77.1087 11.1725 77.9551 10.5996C78.8014 10.0267 80.0905 9.71419 81.8223 9.66211L83.668 9.58398V8.92969C83.668 8.00521 83.4694 7.35742 83.0723 6.98633C82.6751 6.61523 82.1152 6.42969 81.3926 6.42969C80.8327 6.42969 80.2988 6.51107 79.791 6.67383C79.2832 6.83659 78.8014 7.02865 78.3457 7.25L77.8477 6.01953C78.3294 5.77214 78.8828 5.56055 79.5078 5.38477C80.1328 5.20898 80.7904 5.12109 81.4805 5.12109ZM83.6484 10.7266L82.0176 10.7949C80.6829 10.847 79.7422 11.0651 79.1953 11.4492C78.6484 11.8333 78.375 12.377 78.375 13.0801C78.375 13.6921 78.5605 14.1445 78.9316 14.4375C79.3027 14.7305 79.7943 14.877 80.4062 14.877C81.3568 14.877 82.1348 14.6133 82.7402 14.0859C83.3457 13.5586 83.6484 12.7676 83.6484 11.7129V10.7266ZM90.2109 5.29688V16H88.5898V5.29688H90.2109ZM89.4199 1.29297C89.6868 1.29297 89.9147 1.38086 90.1035 1.55664C90.2988 1.72591 90.3965 1.99284 90.3965 2.35742C90.3965 2.71549 90.2988 2.98242 90.1035 3.1582C89.9147 3.33398 89.6868 3.42188 89.4199 3.42188C89.14 3.42188 88.9056 3.33398 88.7168 3.1582C88.5345 2.98242 88.4434 2.71549 88.4434 2.35742C88.4434 1.99284 88.5345 1.72591 88.7168 1.55664C88.9056 1.38086 89.14 1.29297 89.4199 1.29297ZM98.5117 5.10156C98.7266 5.10156 98.9512 5.11458 99.1855 5.14062C99.4199 5.16016 99.6283 5.18945 99.8105 5.22852L99.6055 6.73242C99.4297 6.68685 99.2344 6.65104 99.0195 6.625C98.8047 6.59896 98.6029 6.58594 98.4141 6.58594C97.9844 6.58594 97.5775 6.67383 97.1934 6.84961C96.8158 7.01888 96.4837 7.26628 96.1973 7.5918C95.9108 7.91081 95.6862 8.29818 95.5234 8.75391C95.3607 9.20312 95.2793 9.70443 95.2793 10.2578V16H93.6484V5.29688H94.9961L95.1719 7.26953H95.2402C95.4616 6.8724 95.7285 6.51107 96.041 6.18555C96.3535 5.85352 96.7148 5.58984 97.125 5.39453C97.5417 5.19922 98.0039 5.10156 98.5117 5.10156ZM103.463 16H101.832V0.804688H103.463V16ZM110.895 5.12109C112.171 5.12109 113.118 5.40755 113.736 5.98047C114.355 6.55339 114.664 7.4681 114.664 8.72461V16H113.482L113.17 14.418H113.092C112.792 14.8086 112.48 15.1374 112.154 15.4043C111.829 15.6647 111.451 15.8633 111.021 16C110.598 16.1302 110.077 16.1953 109.459 16.1953C108.808 16.1953 108.229 16.0814 107.721 15.8535C107.219 15.6257 106.822 15.2806 106.529 14.8184C106.243 14.3561 106.1 13.7702 106.1 13.0605C106.1 11.9928 106.523 11.1725 107.369 10.5996C108.215 10.0267 109.505 9.71419 111.236 9.66211L113.082 9.58398V8.92969C113.082 8.00521 112.883 7.35742 112.486 6.98633C112.089 6.61523 111.529 6.42969 110.807 6.42969C110.247 6.42969 109.713 6.51107 109.205 6.67383C108.697 6.83659 108.215 7.02865 107.76 7.25L107.262 6.01953C107.743 5.77214 108.297 5.56055 108.922 5.38477C109.547 5.20898 110.204 5.12109 110.895 5.12109ZM113.062 10.7266L111.432 10.7949C110.097 10.847 109.156 11.0651 108.609 11.4492C108.062 11.8333 107.789 12.377 107.789 13.0801C107.789 13.6921 107.975 14.1445 108.346 14.4375C108.717 14.7305 109.208 14.877 109.82 14.877C110.771 14.877 111.549 14.6133 112.154 14.0859C112.76 13.5586 113.062 12.7676 113.062 11.7129V10.7266ZM119.625 0.804688V4.60352C119.625 5.03971 119.612 5.46289 119.586 5.87305C119.566 6.2832 119.55 6.60221 119.537 6.83008H119.625C119.918 6.34831 120.341 5.94141 120.895 5.60938C121.448 5.27734 122.154 5.11133 123.014 5.11133C124.355 5.11133 125.423 5.57682 126.217 6.50781C127.018 7.43229 127.418 8.80924 127.418 10.6387C127.418 11.8431 127.236 12.8587 126.871 13.6855C126.507 14.5124 125.992 15.1374 125.328 15.5605C124.664 15.9837 123.88 16.1953 122.975 16.1953C122.128 16.1953 121.432 16.0391 120.885 15.7266C120.344 15.4076 119.928 15.0202 119.635 14.5645H119.508L119.176 16H118.004V0.804688H119.625ZM122.75 6.46875C121.975 6.46875 121.36 6.62174 120.904 6.92773C120.449 7.22721 120.12 7.68294 119.918 8.29492C119.723 8.90039 119.625 9.66862 119.625 10.5996V10.6875C119.625 12.0352 119.85 13.0671 120.299 13.7832C120.748 14.4928 121.565 14.8477 122.75 14.8477C123.746 14.8477 124.492 14.4831 124.986 13.7539C125.488 13.0247 125.738 11.9831 125.738 10.6289C125.738 9.2487 125.491 8.21029 124.996 7.51367C124.508 6.81706 123.759 6.46875 122.75 6.46875ZM145.328 8.87109C145.328 9.48958 145.257 10.0951 145.113 10.6875C144.977 11.2734 144.765 11.804 144.479 12.2793C144.192 12.748 143.834 13.1224 143.404 13.4023C142.981 13.6823 142.48 13.8223 141.9 13.8223C141.295 13.8223 140.813 13.6465 140.455 13.2949C140.097 12.9434 139.882 12.5267 139.811 12.0449H139.723C139.475 12.5592 139.111 12.9857 138.629 13.3242C138.154 13.6562 137.568 13.8223 136.871 13.8223C135.855 13.8223 135.071 13.487 134.518 12.8164C133.971 12.1393 133.697 11.2409 133.697 10.1211C133.697 9.2487 133.87 8.47721 134.215 7.80664C134.566 7.12956 135.058 6.59896 135.689 6.21484C136.327 5.82422 137.079 5.62891 137.945 5.62891C138.525 5.62891 139.088 5.67773 139.635 5.77539C140.182 5.87305 140.618 5.98047 140.943 6.09766L140.748 10.0332C140.742 10.2741 140.735 10.4596 140.729 10.5898C140.722 10.7135 140.719 10.8112 140.719 10.8828C140.719 11.5859 140.842 12.0612 141.09 12.3086C141.344 12.5495 141.65 12.6699 142.008 12.6699C142.444 12.6699 142.809 12.5007 143.102 12.1621C143.401 11.8171 143.629 11.3581 143.785 10.7852C143.941 10.2057 144.02 9.56445 144.02 8.86133C144.02 7.61784 143.769 6.55664 143.268 5.67773C142.766 4.79883 142.073 4.12826 141.188 3.66602C140.309 3.20378 139.296 2.97266 138.15 2.97266C137.011 2.97266 135.999 3.15169 135.113 3.50977C134.234 3.86784 133.489 4.37565 132.877 5.0332C132.271 5.68424 131.812 6.45898 131.5 7.35742C131.188 8.25586 131.031 9.2487 131.031 10.3359C131.031 11.6641 131.266 12.7936 131.734 13.7246C132.21 14.6556 132.903 15.3652 133.814 15.8535C134.732 16.3353 135.849 16.5762 137.164 16.5762C137.958 16.5762 138.723 16.4883 139.459 16.3125C140.195 16.1367 140.852 15.9382 141.432 15.7168V16.9863C140.859 17.2272 140.217 17.4225 139.508 17.5723C138.798 17.7285 138.017 17.8066 137.164 17.8066C135.595 17.8066 134.254 17.5104 133.141 16.918C132.027 16.332 131.174 15.4857 130.582 14.3789C129.99 13.2721 129.693 11.944 129.693 10.3945C129.693 9.13802 129.885 7.98242 130.27 6.92773C130.66 5.87305 131.22 4.95833 131.949 4.18359C132.685 3.40885 133.574 2.8099 134.615 2.38672C135.663 1.95703 136.842 1.74219 138.15 1.74219C139.55 1.74219 140.787 2.0319 141.861 2.61133C142.942 3.18424 143.788 4.00456 144.4 5.07227C145.019 6.13346 145.328 7.39974 145.328 8.87109ZM135.152 10.1602C135.152 11.026 135.325 11.6608 135.67 12.0645C136.015 12.4681 136.493 12.6699 137.105 12.6699C137.861 12.6699 138.414 12.3867 138.766 11.8203C139.124 11.2539 139.329 10.5052 139.381 9.57422L139.498 7.02539C139.309 6.9668 139.078 6.91797 138.805 6.87891C138.538 6.83333 138.258 6.81055 137.965 6.81055C137.294 6.81055 136.751 6.97005 136.334 7.28906C135.924 7.60807 135.624 8.02148 135.436 8.5293C135.247 9.03711 135.152 9.58073 135.152 10.1602ZM151.168 20.8047C149.762 20.8047 148.678 20.541 147.916 20.0137C147.154 19.4928 146.773 18.7604 146.773 17.8164C146.773 17.1458 146.985 16.5729 147.408 16.0977C147.838 15.6224 148.43 15.3066 149.186 15.1504C148.906 15.0202 148.665 14.8249 148.463 14.5645C148.268 14.304 148.17 14.0046 148.17 13.666C148.17 13.2754 148.277 12.9336 148.492 12.6406C148.714 12.3411 149.049 12.0547 149.498 11.7812C148.938 11.5534 148.482 11.1693 148.131 10.6289C147.786 10.082 147.613 9.44727 147.613 8.72461C147.613 7.95638 147.773 7.30208 148.092 6.76172C148.411 6.21484 148.873 5.79818 149.479 5.51172C150.084 5.22526 150.816 5.08203 151.676 5.08203C151.865 5.08203 152.053 5.0918 152.242 5.11133C152.438 5.12435 152.623 5.14714 152.799 5.17969C152.975 5.20573 153.128 5.23828 153.258 5.27734H156.93V6.32227L154.957 6.56641C155.152 6.82031 155.315 7.1263 155.445 7.48438C155.576 7.84245 155.641 8.23958 155.641 8.67578C155.641 9.74349 155.279 10.5931 154.557 11.2246C153.834 11.8496 152.841 12.1621 151.578 12.1621C151.279 12.1621 150.973 12.1361 150.66 12.084C150.341 12.2598 150.097 12.4551 149.928 12.6699C149.765 12.8848 149.684 13.1322 149.684 13.4121C149.684 13.6204 149.745 13.7865 149.869 13.9102C149.999 14.0339 150.185 14.125 150.426 14.1836C150.667 14.2357 150.956 14.2617 151.295 14.2617H153.18C154.345 14.2617 155.237 14.5059 155.855 14.9941C156.48 15.4824 156.793 16.1953 156.793 17.1328C156.793 18.3177 156.311 19.2259 155.348 19.8574C154.384 20.4889 152.991 20.8047 151.168 20.8047ZM151.217 19.5352C152.102 19.5352 152.835 19.444 153.414 19.2617C154 19.0859 154.436 18.8288 154.723 18.4902C155.016 18.1582 155.162 17.7611 155.162 17.2988C155.162 16.8691 155.064 16.5436 154.869 16.3223C154.674 16.1074 154.387 15.9642 154.01 15.8926C153.632 15.8145 153.17 15.7754 152.623 15.7754H150.768C150.286 15.7754 149.866 15.8503 149.508 16C149.15 16.1497 148.873 16.3711 148.678 16.6641C148.489 16.957 148.395 17.3216 148.395 17.7578C148.395 18.3372 148.639 18.7767 149.127 19.0762C149.615 19.3822 150.312 19.5352 151.217 19.5352ZM151.637 10.9805C152.411 10.9805 152.994 10.7852 153.385 10.3945C153.775 10.0039 153.971 9.43424 153.971 8.68555C153.971 7.88477 153.772 7.28581 153.375 6.88867C152.978 6.48503 152.392 6.2832 151.617 6.2832C150.875 6.2832 150.302 6.49154 149.898 6.9082C149.501 7.31836 149.303 7.92057 149.303 8.71484C149.303 9.44401 149.505 10.0039 149.908 10.3945C150.312 10.7852 150.888 10.9805 151.637 10.9805ZM170.66 5.10156C171.839 5.10156 172.727 5.41081 173.326 6.0293C173.925 6.64128 174.225 7.6276 174.225 8.98828V16H172.623V9.06641C172.623 8.20052 172.434 7.55273 172.057 7.12305C171.686 6.68685 171.132 6.46875 170.396 6.46875C169.361 6.46875 168.609 6.76823 168.141 7.36719C167.672 7.96615 167.438 8.84831 167.438 10.0137V16H165.826V9.06641C165.826 8.48698 165.742 8.00521 165.572 7.62109C165.41 7.23698 165.162 6.95052 164.83 6.76172C164.505 6.56641 164.091 6.46875 163.59 6.46875C162.88 6.46875 162.311 6.61523 161.881 6.9082C161.451 7.20117 161.139 7.63737 160.943 8.2168C160.755 8.78971 160.66 9.49609 160.66 10.3359V16H159.039V5.29688H160.348L160.592 6.81055H160.68C160.895 6.43945 161.165 6.12695 161.49 5.87305C161.816 5.61914 162.18 5.42708 162.584 5.29688C162.988 5.16667 163.417 5.10156 163.873 5.10156C164.687 5.10156 165.367 5.25456 165.914 5.56055C166.467 5.86003 166.868 6.31901 167.115 6.9375H167.203C167.555 6.31901 168.036 5.86003 168.648 5.56055C169.26 5.25456 169.931 5.10156 170.66 5.10156ZM181.559 5.12109C182.835 5.12109 183.782 5.40755 184.4 5.98047C185.019 6.55339 185.328 7.4681 185.328 8.72461V16H184.146L183.834 14.418H183.756C183.456 14.8086 183.144 15.1374 182.818 15.4043C182.493 15.6647 182.115 15.8633 181.686 16C181.262 16.1302 180.742 16.1953 180.123 16.1953C179.472 16.1953 178.893 16.0814 178.385 15.8535C177.883 15.6257 177.486 15.2806 177.193 14.8184C176.907 14.3561 176.764 13.7702 176.764 13.0605C176.764 11.9928 177.187 11.1725 178.033 10.5996C178.88 10.0267 180.169 9.71419 181.9 9.66211L183.746 9.58398V8.92969C183.746 8.00521 183.548 7.35742 183.15 6.98633C182.753 6.61523 182.193 6.42969 181.471 6.42969C180.911 6.42969 180.377 6.51107 179.869 6.67383C179.361 6.83659 178.88 7.02865 178.424 7.25L177.926 6.01953C178.408 5.77214 178.961 5.56055 179.586 5.38477C180.211 5.20898 180.868 5.12109 181.559 5.12109ZM183.727 10.7266L182.096 10.7949C180.761 10.847 179.82 11.0651 179.273 11.4492C178.727 11.8333 178.453 12.377 178.453 13.0801C178.453 13.6921 178.639 14.1445 179.01 14.4375C179.381 14.7305 179.872 14.877 180.484 14.877C181.435 14.877 182.213 14.6133 182.818 14.0859C183.424 13.5586 183.727 12.7676 183.727 11.7129V10.7266ZM190.289 5.29688V16H188.668V5.29688H190.289ZM189.498 1.29297C189.765 1.29297 189.993 1.38086 190.182 1.55664C190.377 1.72591 190.475 1.99284 190.475 2.35742C190.475 2.71549 190.377 2.98242 190.182 3.1582C189.993 3.33398 189.765 3.42188 189.498 3.42188C189.218 3.42188 188.984 3.33398 188.795 3.1582C188.613 2.98242 188.521 2.71549 188.521 2.35742C188.521 1.99284 188.613 1.72591 188.795 1.55664C188.984 1.38086 189.218 1.29297 189.498 1.29297ZM195.357 16H193.727V0.804688H195.357V16ZM198.541 14.9844C198.541 14.5286 198.652 14.2064 198.873 14.0176C199.094 13.8223 199.365 13.7246 199.684 13.7246C200.016 13.7246 200.296 13.8223 200.523 14.0176C200.751 14.2064 200.865 14.5286 200.865 14.9844C200.865 15.4336 200.751 15.7624 200.523 15.9707C200.296 16.1725 200.016 16.2734 199.684 16.2734C199.365 16.2734 199.094 16.1725 198.873 15.9707C198.652 15.7624 198.541 15.4336 198.541 14.9844ZM208.326 16.1953C207.363 16.1953 206.513 15.9967 205.777 15.5996C205.042 15.2025 204.469 14.597 204.059 13.7832C203.648 12.9694 203.443 11.944 203.443 10.707C203.443 9.41146 203.658 8.35352 204.088 7.5332C204.524 6.70638 205.123 6.0944 205.885 5.69727C206.646 5.30013 207.512 5.10156 208.482 5.10156C209.016 5.10156 209.531 5.1569 210.025 5.26758C210.527 5.37174 210.937 5.50521 211.256 5.66797L210.768 7.02539C210.442 6.89518 210.064 6.77799 209.635 6.67383C209.212 6.56966 208.814 6.51758 208.443 6.51758C207.701 6.51758 207.083 6.67708 206.588 6.99609C206.1 7.3151 205.732 7.78385 205.484 8.40234C205.243 9.02083 205.123 9.78255 205.123 10.6875C205.123 11.5534 205.24 12.2923 205.475 12.9043C205.715 13.5163 206.07 13.985 206.539 14.3105C207.014 14.6296 207.607 14.7891 208.316 14.7891C208.883 14.7891 209.394 14.7305 209.85 14.6133C210.305 14.4896 210.719 14.3464 211.09 14.1836V15.6289C210.732 15.8112 210.331 15.9512 209.889 16.0488C209.452 16.1465 208.932 16.1953 208.326 16.1953ZM222.857 10.6289C222.857 11.5078 222.743 12.2923 222.516 12.9824C222.288 13.6725 221.959 14.2552 221.529 14.7305C221.1 15.2057 220.579 15.5703 219.967 15.8242C219.361 16.0716 218.674 16.1953 217.906 16.1953C217.19 16.1953 216.533 16.0716 215.934 15.8242C215.341 15.5703 214.827 15.2057 214.391 14.7305C213.961 14.2552 213.626 13.6725 213.385 12.9824C213.15 12.2923 213.033 11.5078 213.033 10.6289C213.033 9.45703 213.232 8.46094 213.629 7.64062C214.026 6.8138 214.592 6.18555 215.328 5.75586C216.07 5.31966 216.952 5.10156 217.975 5.10156C218.951 5.10156 219.804 5.31966 220.533 5.75586C221.269 6.19206 221.839 6.82357 222.242 7.65039C222.652 8.4707 222.857 9.46354 222.857 10.6289ZM214.713 10.6289C214.713 11.4883 214.827 12.2337 215.055 12.8652C215.283 13.4967 215.634 13.985 216.109 14.3301C216.585 14.6751 217.197 14.8477 217.945 14.8477C218.688 14.8477 219.296 14.6751 219.771 14.3301C220.253 13.985 220.608 13.4967 220.836 12.8652C221.064 12.2337 221.178 11.4883 221.178 10.6289C221.178 9.77604 221.064 9.04036 220.836 8.42188C220.608 7.79688 220.257 7.3151 219.781 6.97656C219.306 6.63802 218.691 6.46875 217.936 6.46875C216.822 6.46875 216.005 6.83659 215.484 7.57227C214.97 8.30794 214.713 9.32682 214.713 10.6289ZM237.281 5.10156C238.46 5.10156 239.348 5.41081 239.947 6.0293C240.546 6.64128 240.846 7.6276 240.846 8.98828V16H239.244V9.06641C239.244 8.20052 239.055 7.55273 238.678 7.12305C238.307 6.68685 237.753 6.46875 237.018 6.46875C235.982 6.46875 235.23 6.76823 234.762 7.36719C234.293 7.96615 234.059 8.84831 234.059 10.0137V16H232.447V9.06641C232.447 8.48698 232.363 8.00521 232.193 7.62109C232.031 7.23698 231.783 6.95052 231.451 6.76172C231.126 6.56641 230.712 6.46875 230.211 6.46875C229.501 6.46875 228.932 6.61523 228.502 6.9082C228.072 7.20117 227.76 7.63737 227.564 8.2168C227.376 8.78971 227.281 9.49609 227.281 10.3359V16H225.66V5.29688H226.969L227.213 6.81055H227.301C227.516 6.43945 227.786 6.12695 228.111 5.87305C228.437 5.61914 228.801 5.42708 229.205 5.29688C229.609 5.16667 230.038 5.10156 230.494 5.10156C231.308 5.10156 231.988 5.25456 232.535 5.56055C233.089 5.86003 233.489 6.31901 233.736 6.9375H233.824C234.176 6.31901 234.658 5.86003 235.27 5.56055C235.882 5.25456 236.552 5.10156 237.281 5.10156Z" fill="white"/>
</svg>
