<svg width="169" height="15" viewBox="0 0 169 15" fill="none" xmlns="http://www.w3.org/2000/svg">
<path d="M3.28809 14.3633C2.30371 14.3633 1.54492 14.1787 1.01172 13.8096C0.478516 13.445 0.211914 12.9323 0.211914 12.2715C0.211914 11.8021 0.360026 11.401 0.65625 11.0684C0.957031 10.7357 1.37174 10.5146 1.90039 10.4053C1.70443 10.3141 1.53581 10.1774 1.39453 9.99512C1.25781 9.81283 1.18945 9.60319 1.18945 9.36621C1.18945 9.09277 1.26465 8.85352 1.41504 8.64844C1.56999 8.4388 1.80469 8.23828 2.11914 8.04688C1.72721 7.88737 1.4082 7.61849 1.16211 7.24023C0.920573 6.85742 0.799805 6.41309 0.799805 5.90723C0.799805 5.36947 0.911458 4.91146 1.13477 4.5332C1.35807 4.15039 1.68164 3.85872 2.10547 3.6582C2.5293 3.45768 3.04199 3.35742 3.64355 3.35742C3.77572 3.35742 3.90788 3.36426 4.04004 3.37793C4.17676 3.38704 4.30664 3.40299 4.42969 3.42578C4.55273 3.44401 4.65983 3.4668 4.75098 3.49414H7.32129V4.22559L5.94043 4.39648C6.07715 4.57422 6.19108 4.78841 6.28223 5.03906C6.37337 5.28971 6.41895 5.56771 6.41895 5.87305C6.41895 6.62044 6.16602 7.21517 5.66016 7.65723C5.1543 8.09473 4.45931 8.31348 3.5752 8.31348C3.36556 8.31348 3.15137 8.29525 2.93262 8.25879C2.70931 8.38184 2.53841 8.51855 2.41992 8.66895C2.30599 8.81934 2.24902 8.99251 2.24902 9.18848C2.24902 9.33431 2.29232 9.45052 2.37891 9.53711C2.47005 9.6237 2.59993 9.6875 2.76855 9.72852C2.93717 9.76497 3.13997 9.7832 3.37695 9.7832H4.69629C5.51204 9.7832 6.13639 9.9541 6.56934 10.2959C7.00684 10.6377 7.22559 11.1367 7.22559 11.793C7.22559 12.6224 6.88835 13.2581 6.21387 13.7002C5.53939 14.1423 4.56413 14.3633 3.28809 14.3633ZM3.32227 13.4746C3.94206 13.4746 4.45475 13.4108 4.86035 13.2832C5.27051 13.1602 5.57585 12.9801 5.77637 12.7432C5.98145 12.5107 6.08398 12.2327 6.08398 11.9092C6.08398 11.6084 6.01562 11.3805 5.87891 11.2256C5.74219 11.0752 5.54167 10.9749 5.27734 10.9248C5.01302 10.8701 4.68945 10.8428 4.30664 10.8428H3.00781C2.67057 10.8428 2.37663 10.8952 2.12598 11C1.87533 11.1048 1.68164 11.2598 1.54492 11.4648C1.41276 11.6699 1.34668 11.9251 1.34668 12.2305C1.34668 12.6361 1.51758 12.9437 1.85938 13.1533C2.20117 13.3675 2.6888 13.4746 3.32227 13.4746ZM3.61621 7.48633C4.15853 7.48633 4.56641 7.34961 4.83984 7.07617C5.11328 6.80273 5.25 6.40397 5.25 5.87988C5.25 5.31934 5.111 4.90007 4.83301 4.62207C4.55501 4.33952 4.14486 4.19824 3.60254 4.19824C3.08301 4.19824 2.68197 4.34408 2.39941 4.63574C2.12142 4.92285 1.98242 5.3444 1.98242 5.90039C1.98242 6.41081 2.1237 6.80273 2.40625 7.07617C2.6888 7.34961 3.09212 7.48633 3.61621 7.48633ZM14.9844 3.50781V11H14.0547L13.8906 9.94727H13.8291C13.6742 10.207 13.4736 10.4258 13.2275 10.6035C12.9814 10.7812 12.7035 10.9134 12.3936 11C12.0882 11.0911 11.7624 11.1367 11.416 11.1367C10.8236 11.1367 10.3268 11.041 9.92578 10.8496C9.52474 10.6582 9.22168 10.362 9.0166 9.96094C8.81608 9.5599 8.71582 9.04492 8.71582 8.41602V3.50781H9.86426V8.33398C9.86426 8.95833 10.0055 9.42546 10.2881 9.73535C10.5706 10.0407 11.0013 10.1934 11.5801 10.1934C12.1361 10.1934 12.5781 10.0885 12.9062 9.87891C13.2389 9.66927 13.4782 9.36165 13.624 8.95605C13.7699 8.5459 13.8428 8.0446 13.8428 7.45215V3.50781H14.9844ZM20.7881 3.37109C20.9385 3.37109 21.0957 3.38021 21.2598 3.39844C21.4238 3.41211 21.5697 3.43262 21.6973 3.45996L21.5537 4.5127C21.4307 4.48079 21.2939 4.45573 21.1436 4.4375C20.9932 4.41927 20.8519 4.41016 20.7197 4.41016C20.4189 4.41016 20.1341 4.47168 19.8652 4.59473C19.6009 4.71322 19.3685 4.88639 19.168 5.11426C18.9674 5.33757 18.8102 5.60872 18.6963 5.92773C18.5824 6.24219 18.5254 6.5931 18.5254 6.98047V11H17.3838V3.50781H18.3271L18.4502 4.88867H18.498C18.653 4.61068 18.8398 4.35775 19.0586 4.12988C19.2773 3.89746 19.5303 3.71289 19.8174 3.57617C20.109 3.43945 20.4326 3.37109 20.7881 3.37109ZM29.2988 3.50781V11H28.3691L28.2051 9.94727H28.1436C27.9886 10.207 27.7881 10.4258 27.542 10.6035C27.2959 10.7812 27.0179 10.9134 26.708 11C26.4027 11.0911 26.0768 11.1367 25.7305 11.1367C25.138 11.1367 24.6413 11.041 24.2402 10.8496C23.8392 10.6582 23.5361 10.362 23.3311 9.96094C23.1305 9.5599 23.0303 9.04492 23.0303 8.41602V3.50781H24.1787V8.33398C24.1787 8.95833 24.32 9.42546 24.6025 9.73535C24.8851 10.0407 25.3158 10.1934 25.8945 10.1934C26.4505 10.1934 26.8926 10.0885 27.2207 9.87891C27.5534 9.66927 27.7926 9.36165 27.9385 8.95605C28.0843 8.5459 28.1572 8.0446 28.1572 7.45215V3.50781H29.2988ZM35.1025 3.37109C35.2529 3.37109 35.4102 3.38021 35.5742 3.39844C35.7383 3.41211 35.8841 3.43262 36.0117 3.45996L35.8682 4.5127C35.7451 4.48079 35.6084 4.45573 35.458 4.4375C35.3076 4.41927 35.1663 4.41016 35.0342 4.41016C34.7334 4.41016 34.4486 4.47168 34.1797 4.59473C33.9154 4.71322 33.6829 4.88639 33.4824 5.11426C33.2819 5.33757 33.1247 5.60872 33.0107 5.92773C32.8968 6.24219 32.8398 6.5931 32.8398 6.98047V11H31.6982V3.50781H32.6416L32.7646 4.88867H32.8125C32.9674 4.61068 33.1543 4.35775 33.373 4.12988C33.5918 3.89746 33.8447 3.71289 34.1318 3.57617C34.4235 3.43945 34.7471 3.37109 35.1025 3.37109ZM40.3115 3.37109C40.9495 3.37109 41.4964 3.51237 41.9521 3.79492C42.4079 4.07747 42.7565 4.47396 42.998 4.98438C43.2396 5.49023 43.3604 6.08268 43.3604 6.76172V7.46582H38.1855C38.1992 8.34538 38.418 9.0153 38.8418 9.47559C39.2656 9.93587 39.8626 10.166 40.6328 10.166C41.1068 10.166 41.526 10.1227 41.8906 10.0361C42.2552 9.94954 42.6335 9.82194 43.0254 9.65332V10.6514C42.6471 10.82 42.2712 10.943 41.8975 11.0205C41.5283 11.098 41.0908 11.1367 40.585 11.1367C39.8649 11.1367 39.236 10.9909 38.6982 10.6992C38.165 10.403 37.7503 9.97005 37.4541 9.40039C37.1579 8.83073 37.0098 8.13346 37.0098 7.30859C37.0098 6.50195 37.1442 5.80469 37.4131 5.2168C37.6865 4.62435 38.0693 4.16862 38.5615 3.84961C39.0583 3.5306 39.6416 3.37109 40.3115 3.37109ZM40.2979 4.30078C39.6917 4.30078 39.2087 4.49902 38.8486 4.89551C38.4886 5.29199 38.2744 5.8457 38.2061 6.55664H42.1709C42.1663 6.11003 42.0957 5.7181 41.959 5.38086C41.8268 5.03906 41.624 4.77474 41.3506 4.58789C41.0771 4.39648 40.7262 4.30078 40.2979 4.30078ZM48.8086 3.37109C49.7428 3.37109 50.488 3.69238 51.0439 4.33496C51.5999 4.97754 51.8779 5.94368 51.8779 7.2334C51.8779 8.08561 51.7503 8.80111 51.4951 9.37988C51.2399 9.95866 50.8799 10.3962 50.415 10.6924C49.9548 10.9886 49.4102 11.1367 48.7812 11.1367C48.3848 11.1367 48.0361 11.0843 47.7354 10.9795C47.4346 10.8747 47.1771 10.7334 46.9629 10.5557C46.7487 10.3779 46.571 10.1842 46.4297 9.97461H46.3477C46.3613 10.1523 46.3773 10.3665 46.3955 10.6172C46.4183 10.8678 46.4297 11.0866 46.4297 11.2734V14.3496H45.2881V3.50781H46.2246L46.375 4.61523H46.4297C46.5755 4.38737 46.7533 4.18001 46.9629 3.99316C47.1725 3.80176 47.4277 3.65137 47.7285 3.54199C48.0339 3.42806 48.3939 3.37109 48.8086 3.37109ZM48.6104 4.32812C48.0908 4.32812 47.6715 4.42839 47.3525 4.62891C47.0381 4.82943 46.8079 5.13021 46.6621 5.53125C46.5163 5.92773 46.4388 6.42676 46.4297 7.02832V7.24707C46.4297 7.88053 46.498 8.41602 46.6348 8.85352C46.776 9.29102 47.0062 9.6237 47.3252 9.85156C47.6488 10.0794 48.0817 10.1934 48.624 10.1934C49.0889 10.1934 49.4762 10.068 49.7861 9.81738C50.096 9.56673 50.3262 9.2181 50.4766 8.77148C50.6315 8.32031 50.709 7.80306 50.709 7.21973C50.709 6.33561 50.5358 5.63379 50.1895 5.11426C49.8477 4.59017 49.3213 4.32812 48.6104 4.32812ZM56.6631 3.38477C57.5563 3.38477 58.2194 3.58529 58.6523 3.98633C59.0853 4.38737 59.3018 5.02767 59.3018 5.90723V11H58.4746L58.2559 9.89258H58.2012C57.9915 10.166 57.7728 10.3962 57.5449 10.583C57.3171 10.7653 57.0527 10.9043 56.752 11C56.4557 11.0911 56.0911 11.1367 55.6582 11.1367C55.2025 11.1367 54.7969 11.057 54.4414 10.8975C54.0905 10.738 53.8125 10.4964 53.6074 10.1729C53.4069 9.84928 53.3066 9.43913 53.3066 8.94238C53.3066 8.19499 53.6029 7.62077 54.1953 7.21973C54.7878 6.81868 55.6901 6.59993 56.9023 6.56348L58.1943 6.50879V6.05078C58.1943 5.40365 58.0553 4.9502 57.7773 4.69043C57.4993 4.43066 57.1074 4.30078 56.6016 4.30078C56.2096 4.30078 55.8359 4.35775 55.4805 4.47168C55.125 4.58561 54.7878 4.72005 54.4688 4.875L54.1201 4.01367C54.4574 3.84049 54.8447 3.69238 55.2822 3.56934C55.7197 3.44629 56.18 3.38477 56.6631 3.38477ZM58.1807 7.30859L57.0391 7.35645C56.1048 7.3929 55.4463 7.54557 55.0635 7.81445C54.6807 8.08333 54.4893 8.46387 54.4893 8.95605C54.4893 9.38444 54.6191 9.70117 54.8789 9.90625C55.1387 10.1113 55.4827 10.2139 55.9111 10.2139C56.5765 10.2139 57.1211 10.0293 57.5449 9.66016C57.9688 9.29102 58.1807 8.7373 58.1807 7.99902V7.30859ZM62.7744 3.50781V11H61.6396V3.50781H62.7744ZM62.2207 0.705078C62.4076 0.705078 62.5671 0.766602 62.6992 0.889648C62.8359 1.00814 62.9043 1.19499 62.9043 1.4502C62.9043 1.70085 62.8359 1.8877 62.6992 2.01074C62.5671 2.13379 62.4076 2.19531 62.2207 2.19531C62.0247 2.19531 61.8607 2.13379 61.7285 2.01074C61.6009 1.8877 61.5371 1.70085 61.5371 1.4502C61.5371 1.19499 61.6009 1.00814 61.7285 0.889648C61.8607 0.766602 62.0247 0.705078 62.2207 0.705078ZM68.585 3.37109C68.7354 3.37109 68.8926 3.38021 69.0566 3.39844C69.2207 3.41211 69.3665 3.43262 69.4941 3.45996L69.3506 4.5127C69.2275 4.48079 69.0908 4.45573 68.9404 4.4375C68.79 4.41927 68.6488 4.41016 68.5166 4.41016C68.2158 4.41016 67.931 4.47168 67.6621 4.59473C67.3978 4.71322 67.1654 4.88639 66.9648 5.11426C66.7643 5.33757 66.6071 5.60872 66.4932 5.92773C66.3792 6.24219 66.3223 6.5931 66.3223 6.98047V11H65.1807V3.50781H66.124L66.2471 4.88867H66.2949C66.4499 4.61068 66.6367 4.35775 66.8555 4.12988C67.0742 3.89746 67.3271 3.71289 67.6143 3.57617C67.9059 3.43945 68.2295 3.37109 68.585 3.37109ZM72.0508 11H70.9092V0.363281H72.0508V11ZM77.2529 3.38477C78.1462 3.38477 78.8092 3.58529 79.2422 3.98633C79.6751 4.38737 79.8916 5.02767 79.8916 5.90723V11H79.0645L78.8457 9.89258H78.791C78.5814 10.166 78.3626 10.3962 78.1348 10.583C77.9069 10.7653 77.6426 10.9043 77.3418 11C77.0456 11.0911 76.681 11.1367 76.248 11.1367C75.7923 11.1367 75.3867 11.057 75.0312 10.8975C74.6803 10.738 74.4023 10.4964 74.1973 10.1729C73.9967 9.84928 73.8965 9.43913 73.8965 8.94238C73.8965 8.19499 74.1927 7.62077 74.7852 7.21973C75.3776 6.81868 76.2799 6.59993 77.4922 6.56348L78.7842 6.50879V6.05078C78.7842 5.40365 78.6452 4.9502 78.3672 4.69043C78.0892 4.43066 77.6973 4.30078 77.1914 4.30078C76.7995 4.30078 76.4258 4.35775 76.0703 4.47168C75.7148 4.58561 75.3776 4.72005 75.0586 4.875L74.71 4.01367C75.0472 3.84049 75.4346 3.69238 75.8721 3.56934C76.3096 3.44629 76.7699 3.38477 77.2529 3.38477ZM78.7705 7.30859L77.6289 7.35645C76.6947 7.3929 76.0361 7.54557 75.6533 7.81445C75.2705 8.08333 75.0791 8.46387 75.0791 8.95605C75.0791 9.38444 75.209 9.70117 75.4688 9.90625C75.7285 10.1113 76.0726 10.2139 76.501 10.2139C77.1663 10.2139 77.7109 10.0293 78.1348 9.66016C78.5586 9.29102 78.7705 8.7373 78.7705 7.99902V7.30859ZM83.3643 0.363281V3.02246C83.3643 3.3278 83.3551 3.62402 83.3369 3.91113C83.3232 4.19824 83.3118 4.42155 83.3027 4.58105H83.3643C83.5693 4.24382 83.8656 3.95898 84.2529 3.72656C84.6403 3.49414 85.1348 3.37793 85.7363 3.37793C86.6751 3.37793 87.4225 3.70378 87.9785 4.35547C88.5391 5.0026 88.8193 5.96647 88.8193 7.24707C88.8193 8.09017 88.6917 8.80111 88.4365 9.37988C88.1813 9.95866 87.8213 10.3962 87.3564 10.6924C86.8916 10.9886 86.3424 11.1367 85.709 11.1367C85.1165 11.1367 84.6289 11.0273 84.2461 10.8086C83.8678 10.5853 83.5762 10.3141 83.3711 9.99512H83.2822L83.0498 11H82.2295V0.363281H83.3643ZM85.5518 4.32812C85.0094 4.32812 84.5788 4.43522 84.2598 4.64941C83.9408 4.85905 83.7106 5.17806 83.5693 5.60645C83.4326 6.03027 83.3643 6.56803 83.3643 7.21973V7.28125C83.3643 8.22461 83.5215 8.94694 83.8359 9.44824C84.1504 9.94499 84.7223 10.1934 85.5518 10.1934C86.249 10.1934 86.7708 9.93815 87.1172 9.42773C87.4681 8.91732 87.6436 8.18815 87.6436 7.24023C87.6436 6.27409 87.4704 5.5472 87.124 5.05957C86.7822 4.57194 86.2581 4.32812 85.5518 4.32812ZM101.356 6.00977C101.356 6.44271 101.306 6.86654 101.206 7.28125C101.11 7.69141 100.962 8.06283 100.762 8.39551C100.561 8.72363 100.311 8.98568 100.01 9.18164C99.7135 9.3776 99.3626 9.47559 98.957 9.47559C98.5332 9.47559 98.196 9.35254 97.9453 9.10645C97.6947 8.86035 97.5443 8.56868 97.4941 8.23145H97.4326C97.2594 8.59147 97.0042 8.88997 96.667 9.12695C96.3343 9.35938 95.9242 9.47559 95.4365 9.47559C94.7256 9.47559 94.1764 9.24089 93.7891 8.77148C93.4062 8.29753 93.2148 7.66862 93.2148 6.88477C93.2148 6.27409 93.3356 5.73405 93.5771 5.26465C93.8232 4.79069 94.1673 4.41927 94.6094 4.15039C95.056 3.87695 95.5824 3.74023 96.1885 3.74023C96.5941 3.74023 96.9883 3.77441 97.3711 3.84277C97.7539 3.91113 98.0592 3.98633 98.2871 4.06836L98.1504 6.82324C98.1458 6.99186 98.1413 7.12174 98.1367 7.21289C98.1322 7.29948 98.1299 7.36784 98.1299 7.41797C98.1299 7.91016 98.2165 8.24284 98.3896 8.41602C98.5674 8.58464 98.7816 8.66895 99.0322 8.66895C99.3376 8.66895 99.5928 8.55046 99.7979 8.31348C100.007 8.07194 100.167 7.75065 100.276 7.34961C100.386 6.94401 100.44 6.49512 100.44 6.00293C100.44 5.13249 100.265 4.38965 99.9141 3.77441C99.5632 3.15918 99.0778 2.68978 98.458 2.36621C97.8428 2.04264 97.1341 1.88086 96.332 1.88086C95.5345 1.88086 94.8258 2.00618 94.2061 2.25684C93.5908 2.50749 93.069 2.86296 92.6406 3.32324C92.2168 3.77897 91.8955 4.32129 91.6768 4.9502C91.458 5.5791 91.3486 6.27409 91.3486 7.03516C91.3486 7.96484 91.5127 8.75553 91.8408 9.40723C92.1735 10.0589 92.6589 10.5557 93.2969 10.8975C93.9395 11.2347 94.721 11.4033 95.6416 11.4033C96.1976 11.4033 96.7331 11.3418 97.248 11.2188C97.763 11.0957 98.2233 10.9567 98.6289 10.8018V11.6904C98.2279 11.859 97.779 11.9958 97.2822 12.1006C96.7855 12.21 96.2386 12.2646 95.6416 12.2646C94.5433 12.2646 93.6045 12.0573 92.8252 11.6426C92.0459 11.2324 91.4489 10.64 91.0342 9.86523C90.6195 9.09049 90.4121 8.16081 90.4121 7.07617C90.4121 6.19661 90.5465 5.3877 90.8154 4.64941C91.0889 3.91113 91.4808 3.27083 91.9912 2.72852C92.5062 2.1862 93.1283 1.76693 93.8574 1.4707C94.5911 1.16992 95.416 1.01953 96.332 1.01953C97.3118 1.01953 98.1777 1.22233 98.9297 1.62793C99.6862 2.02897 100.279 2.60319 100.707 3.35059C101.14 4.09342 101.356 4.97982 101.356 6.00977ZM94.2334 6.91211C94.2334 7.51823 94.3542 7.96257 94.5957 8.24512C94.8372 8.52767 95.1722 8.66895 95.6006 8.66895C96.1292 8.66895 96.5166 8.4707 96.7627 8.07422C97.0133 7.67773 97.1569 7.15365 97.1934 6.50195L97.2754 4.71777C97.1432 4.67676 96.9814 4.64258 96.79 4.61523C96.6032 4.58333 96.4072 4.56738 96.2021 4.56738C95.7327 4.56738 95.3522 4.67904 95.0605 4.90234C94.7734 5.12565 94.5638 5.41504 94.4316 5.77051C94.2995 6.12598 94.2334 6.50651 94.2334 6.91211ZM105.444 14.3633C104.46 14.3633 103.701 14.1787 103.168 13.8096C102.635 13.445 102.368 12.9323 102.368 12.2715C102.368 11.8021 102.516 11.401 102.812 11.0684C103.113 10.7357 103.528 10.5146 104.057 10.4053C103.861 10.3141 103.692 10.1774 103.551 9.99512C103.414 9.81283 103.346 9.60319 103.346 9.36621C103.346 9.09277 103.421 8.85352 103.571 8.64844C103.726 8.4388 103.961 8.23828 104.275 8.04688C103.883 7.88737 103.564 7.61849 103.318 7.24023C103.077 6.85742 102.956 6.41309 102.956 5.90723C102.956 5.36947 103.068 4.91146 103.291 4.5332C103.514 4.15039 103.838 3.85872 104.262 3.6582C104.686 3.45768 105.198 3.35742 105.8 3.35742C105.932 3.35742 106.064 3.36426 106.196 3.37793C106.333 3.38704 106.463 3.40299 106.586 3.42578C106.709 3.44401 106.816 3.4668 106.907 3.49414H109.478V4.22559L108.097 4.39648C108.233 4.57422 108.347 4.78841 108.438 5.03906C108.53 5.28971 108.575 5.56771 108.575 5.87305C108.575 6.62044 108.322 7.21517 107.816 7.65723C107.311 8.09473 106.616 8.31348 105.731 8.31348C105.522 8.31348 105.308 8.29525 105.089 8.25879C104.866 8.38184 104.695 8.51855 104.576 8.66895C104.462 8.81934 104.405 8.99251 104.405 9.18848C104.405 9.33431 104.449 9.45052 104.535 9.53711C104.626 9.6237 104.756 9.6875 104.925 9.72852C105.093 9.76497 105.296 9.7832 105.533 9.7832H106.853C107.668 9.7832 108.293 9.9541 108.726 10.2959C109.163 10.6377 109.382 11.1367 109.382 11.793C109.382 12.6224 109.045 13.2581 108.37 13.7002C107.696 14.1423 106.72 14.3633 105.444 14.3633ZM105.479 13.4746C106.098 13.4746 106.611 13.4108 107.017 13.2832C107.427 13.1602 107.732 12.9801 107.933 12.7432C108.138 12.5107 108.24 12.2327 108.24 11.9092C108.24 11.6084 108.172 11.3805 108.035 11.2256C107.898 11.0752 107.698 10.9749 107.434 10.9248C107.169 10.8701 106.846 10.8428 106.463 10.8428H105.164C104.827 10.8428 104.533 10.8952 104.282 11C104.032 11.1048 103.838 11.2598 103.701 11.4648C103.569 11.6699 103.503 11.9251 103.503 12.2305C103.503 12.6361 103.674 12.9437 104.016 13.1533C104.357 13.3675 104.845 13.4746 105.479 13.4746ZM105.772 7.48633C106.315 7.48633 106.723 7.34961 106.996 7.07617C107.27 6.80273 107.406 6.40397 107.406 5.87988C107.406 5.31934 107.267 4.90007 106.989 4.62207C106.711 4.33952 106.301 4.19824 105.759 4.19824C105.239 4.19824 104.838 4.34408 104.556 4.63574C104.278 4.92285 104.139 5.3444 104.139 5.90039C104.139 6.41081 104.28 6.80273 104.562 7.07617C104.845 7.34961 105.248 7.48633 105.772 7.48633ZM119.089 3.37109C119.914 3.37109 120.536 3.58757 120.955 4.02051C121.374 4.44889 121.584 5.13932 121.584 6.0918V11H120.463V6.14648C120.463 5.54036 120.331 5.08691 120.066 4.78613C119.807 4.48079 119.419 4.32812 118.904 4.32812C118.18 4.32812 117.653 4.53776 117.325 4.95703C116.997 5.3763 116.833 5.99382 116.833 6.80957V11H115.705V6.14648C115.705 5.74089 115.646 5.40365 115.527 5.13477C115.413 4.86589 115.24 4.66536 115.008 4.5332C114.78 4.39648 114.491 4.32812 114.14 4.32812C113.643 4.32812 113.244 4.43066 112.943 4.63574C112.643 4.84082 112.424 5.14616 112.287 5.55176C112.155 5.9528 112.089 6.44727 112.089 7.03516V11H110.954V3.50781H111.87L112.041 4.56738H112.103C112.253 4.30762 112.442 4.08887 112.67 3.91113C112.898 3.7334 113.153 3.59896 113.436 3.50781C113.718 3.41667 114.019 3.37109 114.338 3.37109C114.908 3.37109 115.384 3.47819 115.767 3.69238C116.154 3.90202 116.434 4.22331 116.607 4.65625H116.669C116.915 4.22331 117.252 3.90202 117.681 3.69238C118.109 3.47819 118.578 3.37109 119.089 3.37109ZM126.718 3.38477C127.611 3.38477 128.274 3.58529 128.707 3.98633C129.14 4.38737 129.356 5.02767 129.356 5.90723V11H128.529L128.311 9.89258H128.256C128.046 10.166 127.827 10.3962 127.6 10.583C127.372 10.7653 127.107 10.9043 126.807 11C126.51 11.0911 126.146 11.1367 125.713 11.1367C125.257 11.1367 124.852 11.057 124.496 10.8975C124.145 10.738 123.867 10.4964 123.662 10.1729C123.462 9.84928 123.361 9.43913 123.361 8.94238C123.361 8.19499 123.658 7.62077 124.25 7.21973C124.842 6.81868 125.745 6.59993 126.957 6.56348L128.249 6.50879V6.05078C128.249 5.40365 128.11 4.9502 127.832 4.69043C127.554 4.43066 127.162 4.30078 126.656 4.30078C126.264 4.30078 125.891 4.35775 125.535 4.47168C125.18 4.58561 124.842 4.72005 124.523 4.875L124.175 4.01367C124.512 3.84049 124.899 3.69238 125.337 3.56934C125.774 3.44629 126.235 3.38477 126.718 3.38477ZM128.235 7.30859L127.094 7.35645C126.16 7.3929 125.501 7.54557 125.118 7.81445C124.735 8.08333 124.544 8.46387 124.544 8.95605C124.544 9.38444 124.674 9.70117 124.934 9.90625C125.193 10.1113 125.537 10.2139 125.966 10.2139C126.631 10.2139 127.176 10.0293 127.6 9.66016C128.023 9.29102 128.235 8.7373 128.235 7.99902V7.30859ZM132.829 3.50781V11H131.694V3.50781H132.829ZM132.275 0.705078C132.462 0.705078 132.622 0.766602 132.754 0.889648C132.891 1.00814 132.959 1.19499 132.959 1.4502C132.959 1.70085 132.891 1.8877 132.754 2.01074C132.622 2.13379 132.462 2.19531 132.275 2.19531C132.079 2.19531 131.915 2.13379 131.783 2.01074C131.656 1.8877 131.592 1.70085 131.592 1.4502C131.592 1.19499 131.656 1.00814 131.783 0.889648C131.915 0.766602 132.079 0.705078 132.275 0.705078ZM136.377 11H135.235V0.363281H136.377V11ZM138.605 10.2891C138.605 9.97005 138.683 9.74447 138.838 9.6123C138.993 9.47559 139.182 9.40723 139.405 9.40723C139.638 9.40723 139.834 9.47559 139.993 9.6123C140.153 9.74447 140.232 9.97005 140.232 10.2891C140.232 10.6035 140.153 10.8337 139.993 10.9795C139.834 11.1208 139.638 11.1914 139.405 11.1914C139.182 11.1914 138.993 11.1208 138.838 10.9795C138.683 10.8337 138.605 10.6035 138.605 10.2891ZM145.455 11.1367C144.781 11.1367 144.186 10.9977 143.671 10.7197C143.156 10.4417 142.755 10.0179 142.468 9.44824C142.181 8.87858 142.037 8.16081 142.037 7.29492C142.037 6.38802 142.188 5.64746 142.488 5.07324C142.794 4.49447 143.213 4.06608 143.746 3.78809C144.279 3.51009 144.885 3.37109 145.564 3.37109C145.938 3.37109 146.298 3.40983 146.645 3.4873C146.995 3.56022 147.283 3.65365 147.506 3.76758L147.164 4.71777C146.936 4.62663 146.672 4.5446 146.371 4.47168C146.075 4.39876 145.797 4.3623 145.537 4.3623C145.018 4.3623 144.585 4.47396 144.238 4.69727C143.896 4.92057 143.639 5.2487 143.466 5.68164C143.297 6.11458 143.213 6.64779 143.213 7.28125C143.213 7.88737 143.295 8.40462 143.459 8.83301C143.628 9.26139 143.876 9.58952 144.204 9.81738C144.537 10.0407 144.951 10.1523 145.448 10.1523C145.845 10.1523 146.202 10.1113 146.521 10.0293C146.84 9.94271 147.13 9.84245 147.39 9.72852V10.7402C147.139 10.8678 146.859 10.9658 146.549 11.0342C146.243 11.1025 145.879 11.1367 145.455 11.1367ZM155.627 7.24023C155.627 7.85547 155.547 8.40462 155.388 8.8877C155.228 9.37077 154.998 9.77865 154.697 10.1113C154.396 10.444 154.032 10.6992 153.604 10.877C153.18 11.0501 152.699 11.1367 152.161 11.1367C151.66 11.1367 151.2 11.0501 150.78 10.877C150.366 10.6992 150.006 10.444 149.7 10.1113C149.399 9.77865 149.165 9.37077 148.996 8.8877C148.832 8.40462 148.75 7.85547 148.75 7.24023C148.75 6.41992 148.889 5.72266 149.167 5.14844C149.445 4.56966 149.841 4.12988 150.356 3.8291C150.876 3.52376 151.493 3.37109 152.209 3.37109C152.893 3.37109 153.49 3.52376 154 3.8291C154.515 4.13444 154.914 4.5765 155.196 5.15527C155.483 5.72949 155.627 6.42448 155.627 7.24023ZM149.926 7.24023C149.926 7.8418 150.006 8.36361 150.165 8.80566C150.325 9.24772 150.571 9.58952 150.903 9.83105C151.236 10.0726 151.664 10.1934 152.188 10.1934C152.708 10.1934 153.134 10.0726 153.467 9.83105C153.804 9.58952 154.052 9.24772 154.212 8.80566C154.371 8.36361 154.451 7.8418 154.451 7.24023C154.451 6.64323 154.371 6.12826 154.212 5.69531C154.052 5.25781 153.806 4.92057 153.474 4.68359C153.141 4.44661 152.71 4.32812 152.182 4.32812C151.402 4.32812 150.83 4.58561 150.466 5.10059C150.106 5.61556 149.926 6.32878 149.926 7.24023ZM165.724 3.37109C166.549 3.37109 167.171 3.58757 167.59 4.02051C168.009 4.44889 168.219 5.13932 168.219 6.0918V11H167.098V6.14648C167.098 5.54036 166.965 5.08691 166.701 4.78613C166.441 4.48079 166.054 4.32812 165.539 4.32812C164.814 4.32812 164.288 4.53776 163.96 4.95703C163.632 5.3763 163.468 5.99382 163.468 6.80957V11H162.34V6.14648C162.34 5.74089 162.281 5.40365 162.162 5.13477C162.048 4.86589 161.875 4.66536 161.643 4.5332C161.415 4.39648 161.125 4.32812 160.774 4.32812C160.278 4.32812 159.879 4.43066 159.578 4.63574C159.277 4.84082 159.059 5.14616 158.922 5.55176C158.79 5.9528 158.724 6.44727 158.724 7.03516V11H157.589V3.50781H158.505L158.676 4.56738H158.737C158.888 4.30762 159.077 4.08887 159.305 3.91113C159.533 3.7334 159.788 3.59896 160.07 3.50781C160.353 3.41667 160.654 3.37109 160.973 3.37109C161.542 3.37109 162.019 3.47819 162.401 3.69238C162.789 3.90202 163.069 4.22331 163.242 4.65625H163.304C163.55 4.22331 163.887 3.90202 164.315 3.69238C164.744 3.47819 165.213 3.37109 165.724 3.37109Z" fill="#AAAAAA"/>
</svg>
